<svg width="512" height="512" viewBox="0 0 512 512" fill="none" xmlns="http://www.w3.org/2000/svg">
<path d="M93.0066 93.0066C182.827 3.18611 328.456 3.18623 418.276 93.0066C508.097 182.827 508.097 328.456 418.276 418.276C328.456 508.097 182.827 508.097 93.0066 418.276C3.18622 328.456 3.18608 182.827 93.0066 93.0066ZM313.634 66.2869C314.587 77.5672 311.171 89.1484 303.389 98.281C302.754 99.3019 301.994 100.267 301.107 101.154L250.59 151.671C261.601 154.396 272.034 160.062 280.64 168.668C294.488 182.516 300.721 201.094 299.343 219.202C317.378 217.772 335.879 223.906 349.677 237.704C374.806 262.833 374.517 303.562 349.407 328.673L247.685 430.395C247.134 431.201 246.5 431.967 245.785 432.682C241.222 437.245 241.23 444.628 245.773 449.171C247.802 451.199 250.355 452.312 253.006 452.537C254.63 452.675 256.177 453.052 257.616 453.63C307.628 453.134 357.488 433.809 395.648 395.649C472.972 318.325 472.972 192.958 395.648 115.635C371.911 91.8975 343.646 75.4502 313.634 66.2869ZM269.207 58.1062C214.114 54.3458 157.749 73.5204 115.635 115.635C38.3107 192.958 38.3107 318.325 115.635 395.649C142.873 422.888 176.074 440.529 211.036 448.577C208.831 436.1 212.077 422.848 220.767 412.649C221.402 411.628 222.163 410.662 223.05 409.775L326.78 306.045C339.562 293.263 339.514 272.796 327.05 260.332C314.585 247.867 294.119 247.819 281.337 260.601L220.388 321.55C214.14 327.798 204.01 327.798 197.761 321.55C191.513 315.301 191.513 305.17 197.761 298.922L254.775 241.908C255.546 240.223 256.625 238.644 258.012 237.257C270.704 224.565 270.704 203.987 258.012 191.295C245.32 178.603 224.743 178.603 212.051 191.295L177.756 225.59C176.546 226.799 175.19 227.773 173.746 228.514L149.294 252.968C143.045 259.216 132.915 259.216 126.667 252.968C120.419 246.719 120.418 236.589 126.667 230.341L276.472 80.5349C277.024 79.7298 277.656 78.9629 278.371 78.2478C282.934 73.6848 282.927 66.3016 278.384 61.7585C276.355 59.7301 273.802 58.6177 271.151 58.3923C270.489 58.3361 269.841 58.239 269.207 58.1062Z" fill="#267373"/>
</svg>
