<svg width="512" height="512" viewBox="0 0 512 512" fill="none" xmlns="http://www.w3.org/2000/svg">
<path d="M90.5369 90.537C181.92 -0.845671 330.08 -0.845671 421.463 90.537C512.845 181.92 512.845 330.08 421.463 421.463C330.08 512.845 181.92 512.845 90.5369 421.463C-0.845689 330.08 -0.845597 181.92 90.5369 90.537ZM318.059 72.1493C317.716 82.5439 313.997 92.8473 306.898 101.272C306.141 102.447 305.25 103.561 304.221 104.589L258.377 150.433C267.616 153.789 276.284 159.172 283.693 166.581C297.303 180.191 304.075 198.051 304.009 215.89C321.683 215.689 339.404 222.293 352.904 235.793C379.651 262.54 379.331 305.859 352.643 332.548L250.988 434.202C250.352 435.092 249.637 435.944 248.838 436.743C245.82 439.761 245.826 444.644 248.831 447.649C250.178 448.996 251.851 449.726 253.609 449.876C253.959 449.906 254.307 449.944 254.651 449.991C304.749 450.337 354.955 431.402 393.179 393.179C468.94 317.417 468.94 194.583 393.179 118.821C371.307 96.9496 345.512 81.3927 318.059 72.1493ZM267.878 62.3622C214.348 59.0987 159.724 77.918 118.821 118.821C43.0595 194.583 43.0594 317.417 118.821 393.179C144.026 418.383 174.441 435.198 206.598 443.633C206.259 432.231 209.982 420.731 217.768 411.491C218.525 410.318 219.417 409.206 220.444 408.179L324.359 304.264C335.63 292.992 335.543 275.001 324.62 264.077C313.696 253.154 295.705 253.068 284.433 264.339L223.378 325.394C215.567 333.205 202.904 333.205 195.094 325.394C187.283 317.584 187.283 304.921 195.094 297.11L253.221 238.982C253.867 238.069 254.599 237.196 255.418 236.378C266.875 224.921 266.878 206.335 255.409 194.865C244.308 183.765 226.541 183.41 215.023 193.786L152.138 256.673C144.327 264.483 131.664 264.483 123.853 256.673C116.043 248.862 116.043 236.199 123.853 228.389L149.851 202.39C150.129 202.075 150.418 201.766 150.719 201.466L185.612 166.572C186.172 166.012 186.74 165.463 187.314 164.926L273.677 78.5634C274.312 77.6735 275.028 76.8231 275.827 76.0243C278.845 73.0062 278.839 68.124 275.834 65.119C274.486 63.7717 272.814 63.0412 271.055 62.8915C269.966 62.7988 268.905 62.6191 267.878 62.3622Z" fill="white"/>
</svg>
